# xmcd
#
# Track frame offsets:
# 150
# 14022
# 26810
# 40632
# 56457
# 68487
# 84867
# 96172
# 122662
# 138180
# 151142
# 166482
# 184357
# 199805
# 212282
# 224172
# 240600
# 256215
#
# Disc length: 3646 seconds
#
#
# Revision: 0
# Processed by: cddbd v1.5.2PL0 Copyright (c) Steve Scherf et al.
# Submitted via: FreeRIP 2.951 
#
DISCID=f40e3c12
DTITLE=Sertanejo - O Melhor do Modão de Viola
DYEAR=1900
DGENRE=Sertaneja
TTITLE0=Rei do Gado
TTITLE1=Pagode em Brasilia
TTITLE2=Canoeiro
TTITLE3=Boiadeiro Errante
TTITLE4=Mula Preta "Moda da Mula Preta"
TTITLE5=Tristeza do Jeca
TTITLE6=Chalana
TTITLE7=Recordando Zé Carreiro
TTITLE8=Paineira Véia
TTITLE9=Rio de Lágrimas
TTITLE10=Cabelo Loiro
TTITLE11=Boi Soberano
TTITLE12=Boiadeiro de Palavra
TTITLE13=Saudade da Minha Terra
TTITLE14=Viola Cabocla
TTITLE15=Chico Mulato
TTITLE16=A Volta do Boiadeiro
TTITLE17=Travessia do Araguaia
EXTD=
EXTT0=
EXTT1=
EXTT2=
EXTT3=
EXTT4=
EXTT5=
EXTT6=
EXTT7=
EXTT8=
EXTT9=
EXTT10=
EXTT11=
EXTT12=
EXTT13=
EXTT14=
EXTT15=
EXTT16=
EXTT17=
PLAYORDER=
